<svg xmlns="http://www.w3.org/2000/svg" width="1800" height="560" viewBox="0 0 1800 560">
  <defs><style>@import url('https://fonts.googleapis.com/css2?family=Space+Mono:wght@400;700&amp;display=swap');</style></defs>
  <rect width="1800" height="560" fill="#FFFFFF"/>
  <rect x="58" y="58" width="1704" height="464" rx="12" fill="#000000"/>
  <clipPath id="card-clip"><rect x="48" y="48" width="1704" height="464" rx="12"/></clipPath>
  <rect x="48" y="48" width="1704" height="464" rx="12" fill="#FFFFFF"/>
  <rect x="48" y="48" width="1704" height="176" fill="#2D333B" clip-path="url(#card-clip)"/>
  <text x="104" y="110" font-family="'Space Mono', 'Courier New', monospace" font-size="20" fill="#888888" font-weight="700" letter-spacing="2">UNSTYLED HEADLESS COMPONENTS FOR GO</text>
  <text x="104" y="175" font-family="'Space Mono', 'Courier New', monospace" font-size="56" fill="#3B82F6" font-weight="700" letter-spacing="1">CORE.md</text>
  <text x="1696" y="110" font-family="'Space Mono', 'Courier New', monospace" font-size="20" fill="#888888" font-weight="700" letter-spacing="2" text-anchor="end">VERSION</text>
  <text x="1696" y="175" font-family="'Space Mono', 'Courier New', monospace" font-size="48" fill="#FFFFFF" font-weight="700" letter-spacing="1" text-anchor="end">V0.1.0</text>
  <circle cx="410" cy="155" r="8" fill="#34C759"/>
  <text x="104" y="280" font-family="'Space Mono', 'Courier New', monospace" font-size="24" fill="#888888" letter-spacing="0.5">60+ components. Data attributes. Zero styling opinions.</text>
  <rect x="104" y="424" width="168" height="44" rx="6" fill="#3B82F6" stroke="#000000" stroke-width="8"/>
  <text x="188" y="453" font-family="'Space Mono', 'Courier New', monospace" font-size="20" fill="#FFFFFF" text-anchor="middle" font-weight="700" letter-spacing="1">HEADLESS</text>
  <rect x="288" y="424" width="168" height="44" rx="6" fill="#007AFF" stroke="#000000" stroke-width="8"/>
  <text x="372" y="453" font-family="'Space Mono', 'Courier New', monospace" font-size="20" fill="#FFFFFF" text-anchor="middle" font-weight="700" letter-spacing="1">UNSTYLED</text>
  <rect x="472" y="424" width="140" height="44" rx="6" fill="#34C759" stroke="#000000" stroke-width="8"/>
  <text x="542" y="453" font-family="'Space Mono', 'Courier New', monospace" font-size="20" fill="#FFFFFF" text-anchor="middle" font-weight="700" letter-spacing="1">GUI.md</text>
  <rect x="48" y="500" width="1704" height="12" fill="#3B82F6" clip-path="url(#card-clip)"/>
  <rect x="48" y="48" width="1704" height="464" rx="12" fill="none" stroke="#000000" stroke-width="8"/>
  <line x1="48" y1="224" x2="1752" y2="224" stroke="#000000" stroke-width="8"/>
</svg>