<svg xmlns="http://www.w3.org/2000/svg" width="1800" height="560" viewBox="0 0 1800 560">
  <defs><style>@import url('https://fonts.googleapis.com/css2?family=Inter:wght@400;600;700&amp;display=swap');</style></defs>
  <rect width="1800" height="560" fill="#F9FAFB"/>
  <rect x="48" y="48" width="1704" height="464" rx="16" fill="#111827"/>
  <rect x="48" y="48" width="1704" height="176" rx="16" fill="#1F2937"/>
  <rect x="48" y="208" width="1704" height="4" fill="#374151"/>
  <text x="104" y="112" font-family="'Inter', 'Segoe UI', system-ui, sans-serif" font-size="18" fill="#9CA3AF" font-weight="600" letter-spacing="1">DEVELOPER TOOLS THEME FOR CORE.MD</text>
  <text x="104" y="178" font-family="'Inter', 'Segoe UI', system-ui, sans-serif" font-size="56" fill="#22C55E" font-weight="700" letter-spacing="-1">devbox.md</text>
  <text x="1696" y="112" font-family="'Inter', 'Segoe UI', system-ui, sans-serif" font-size="18" fill="#9CA3AF" font-weight="600" letter-spacing="1" text-anchor="end">VERSION</text>
  <text x="1696" y="178" font-family="'Inter', 'Segoe UI', system-ui, sans-serif" font-size="48" fill="#E5E7EB" font-weight="700" letter-spacing="-1" text-anchor="end">v0.1.0</text>
  <circle cx="528" cy="158" r="8" fill="#22C55E"/>
  <text x="104" y="276" font-family="'Inter', 'Segoe UI', system-ui, sans-serif" font-size="22" fill="#9CA3AF" letter-spacing="0">Green accents. Soft shadows. Modern sans-serif. Dark-first.</text>
  <rect x="104" y="424" width="128" height="44" rx="8" fill="#22C55E"/>
  <text x="168" y="452" font-family="'Inter', 'Segoe UI', system-ui, sans-serif" font-size="16" fill="#FFFFFF" text-anchor="middle" font-weight="700">Theme</text>
  <rect x="248" y="424" width="128" height="44" rx="8" fill="#3B82F6"/>
  <text x="312" y="452" font-family="'Inter', 'Segoe UI', system-ui, sans-serif" font-size="16" fill="#FFFFFF" text-anchor="middle" font-weight="700">core.md</text>
  <rect x="392" y="424" width="112" height="44" rx="8" fill="#374151"/>
  <text x="448" y="452" font-family="'Inter', 'Segoe UI', system-ui, sans-serif" font-size="16" fill="#E5E7EB" text-anchor="middle" font-weight="700">MIT</text>
  <rect x="48" y="496" width="1704" height="16" rx="0" fill="#22C55E" opacity="0.8"/>
  <rect x="48" y="48" width="1704" height="464" rx="16" fill="none" stroke="#374151" stroke-width="2"/>
</svg>